<?xml version="1.0" encoding="UTF-8" standalone="no"?>
<!DOCTYPE svg PUBLIC "-//W3C//DTD SVG 1.1//EN"
 "http://www.w3.org/Graphics/SVG/1.1/DTD/svg11.dtd">
<!-- Generated by graphviz version 5.0.0 (20220707.1540)
 -->
<!-- Title: UmlClassDiagram Pages: 1 -->
<svg width="1735pt" height="945pt"
 viewBox="0.00 0.00 1735.18 945.40" xmlns="http://www.w3.org/2000/svg" xmlns:xlink="http://www.w3.org/1999/xlink">
<g id="graph0" class="graph" transform="scale(1 1) rotate(0) translate(4 941.4)">
<title>UmlClassDiagram</title>
<polygon fill="white" stroke="transparent" points="-4,4 -4,-941.4 1731.18,-941.4 1731.18,4 -4,4"/>
<!-- 1 -->
<g id="node1" class="node">
<title>1</title>
<polygon fill="#f2f2f2" stroke="black" points="794.35,-0.5 794.35,-117.3 932.83,-117.3 932.83,-0.5 794.35,-0.5"/>
<text text-anchor="middle" x="863.59" y="-100.7" font-family="Times,serif" font-size="14.00">&lt;&lt;Struct&gt;&gt;</text>
<text text-anchor="middle" x="863.59" y="-83.9" font-family="Times,serif" font-size="14.00">PoolData</text>
<text text-anchor="middle" x="863.59" y="-67.1" font-family="Times,serif" font-size="14.00">contracts/Equb.sol</text>
<polyline fill="none" stroke="black" points="794.35,-58.9 932.83,-58.9 "/>
<text text-anchor="start" x="802.35" y="-42.3" font-family="Times,serif" font-size="14.00">equbAddress: address</text>
<text text-anchor="start" x="802.35" y="-25.5" font-family="Times,serif" font-size="14.00">poolName: string</text>
<text text-anchor="start" x="802.35" y="-8.7" font-family="Times,serif" font-size="14.00">poolImage: string</text>
</g>
<!-- 0 -->
<g id="node4" class="node">
<title>0</title>
<polygon fill="#f2f2f2" stroke="black" points="0,-154.3 0,-598.3 1727.18,-598.3 1727.18,-154.3 0,-154.3"/>
<text text-anchor="middle" x="863.59" y="-581.7" font-family="Times,serif" font-size="14.00">Equb</text>
<text text-anchor="middle" x="863.59" y="-564.9" font-family="Times,serif" font-size="14.00">contracts/Equb.sol</text>
<polyline fill="none" stroke="black" points="0,-556.7 1727.18,-556.7 "/>
<text text-anchor="start" x="8" y="-540.1" font-family="Times,serif" font-size="14.00">Public:</text>
<text text-anchor="start" x="8" y="-523.3" font-family="Times,serif" font-size="14.00"> &#160;&#160;numberOfPools: uint256</text>
<text text-anchor="start" x="8" y="-506.5" font-family="Times,serif" font-size="14.00"> &#160;&#160;timeContractAddress: address</text>
<text text-anchor="start" x="8" y="-489.7" font-family="Times,serif" font-size="14.00"> &#160;&#160;timeContract: BokkyPooBahsDateTimeContract</text>
<text text-anchor="start" x="8" y="-472.9" font-family="Times,serif" font-size="14.00"> &#160;&#160;priceFeed: AggregatorV3Interface</text>
<text text-anchor="start" x="8" y="-456.1" font-family="Times,serif" font-size="14.00"> &#160;&#160;pools: Pool[]</text>
<text text-anchor="start" x="8" y="-439.3" font-family="Times,serif" font-size="14.00"> &#160;&#160;contributions: mapping(address=&gt;mapping(address=&gt;ContributionRecord))</text>
<polyline fill="none" stroke="black" points="0,-431.1 1727.18,-431.1 "/>
<text text-anchor="start" x="8" y="-414.5" font-family="Times,serif" font-size="14.00">Internal:</text>
<text text-anchor="start" x="8" y="-397.7" font-family="Times,serif" font-size="14.00"> &#160;&#160;&#160;getPoolIndex(equbAddress: address): uint</text>
<text text-anchor="start" x="8" y="-380.9" font-family="Times,serif" font-size="14.00"> &#160;&#160;&#160;removeMember(equbAddress: address, member: address)</text>
<text text-anchor="start" x="8" y="-364.1" font-family="Times,serif" font-size="14.00">Public:</text>
<text text-anchor="start" x="8" y="-347.3" font-family="Times,serif" font-size="14.00"> &#160;&#160;&#160;&lt;&lt;payable&gt;&gt; contribution(equbAddress: address, member: address)</text>
<text text-anchor="start" x="8" y="-330.5" font-family="Times,serif" font-size="14.00"> &#160;&#160;&#160;&lt;&lt;event&gt;&gt; ContributionEvent(member: address, contributeAmount: uint256, daoBalance: uint256)</text>
<text text-anchor="start" x="8" y="-313.7" font-family="Times,serif" font-size="14.00"> &#160;&#160;&#160;&lt;&lt;event&gt;&gt; SkipContributionEvent(member: address, equbAddress: address)</text>
<text text-anchor="start" x="8" y="-296.9" font-family="Times,serif" font-size="14.00"> &#160;&#160;&#160;&lt;&lt;event&gt;&gt; MemberRemovedEvent(member: address, equbAddress: address)</text>
<text text-anchor="start" x="8" y="-280.1" font-family="Times,serif" font-size="14.00"> &#160;&#160;&#160;&lt;&lt;event&gt;&gt; NextContributionTime(time: uint)</text>
<text text-anchor="start" x="8" y="-263.3" font-family="Times,serif" font-size="14.00"> &#160;&#160;&#160;&lt;&lt;event&gt;&gt; Success(message: string)</text>
<text text-anchor="start" x="8" y="-246.5" font-family="Times,serif" font-size="14.00"> &#160;&#160;&#160;constructor()</text>
<text text-anchor="start" x="8" y="-229.7" font-family="Times,serif" font-size="14.00"> &#160;&#160;&#160;hasContributed(equbAddress: address, member: address): (bool, uint)</text>
<text text-anchor="start" x="8" y="-212.9" font-family="Times,serif" font-size="14.00"> &#160;&#160;&#160;createEqub(_name: string, _profileUrl: string, _email: string, _description: string, _contributionAmount: uint, _contributionDate: uint, _website: string, _twitterUrl: string, _facebookUrl: string, _telegramUrl: string, _members: address[])</text>
<text text-anchor="start" x="8" y="-196.1" font-family="Times,serif" font-size="14.00"> &#160;&#160;&#160;getPool(equbAddress: address): (_equbAddress: address, _name: string, _profileUrl: string, _email: string, _description: string, _contributionAmount: uint, _contributionDate: uint, _equbBalance: uint, _website: string, _twitterUrl: string, _facebookUrl: string, _telegramUrl: string, _members: address[])</text>
<text text-anchor="start" x="8" y="-179.3" font-family="Times,serif" font-size="14.00"> &#160;&#160;&#160;getPoolByMember(member: address): PoolData[]</text>
<text text-anchor="start" x="8" y="-162.5" font-family="Times,serif" font-size="14.00"> &#160;&#160;&#160;getRemainingSkipCount(equbAddress: address, member: address): uint</text>
</g>
<!-- 1&#45;&gt;0 -->
<g id="edge1" class="edge">
<title>1&#45;&gt;0</title>
<path fill="none" stroke="black" d="M858.24,-117.38C857.98,-125.14 857.76,-133.45 857.58,-142.16"/>
<polygon fill="black" stroke="black" points="857.58,-142.28 861.46,-148.35 857.35,-154.27 853.46,-148.2 857.58,-142.28"/>
</g>
<!-- 2 -->
<g id="node2" class="node">
<title>2</title>
<polygon fill="#f2f2f2" stroke="black" points="692.84,-635.3 692.84,-936.9 866.34,-936.9 866.34,-635.3 692.84,-635.3"/>
<text text-anchor="middle" x="779.59" y="-920.3" font-family="Times,serif" font-size="14.00">&lt;&lt;Struct&gt;&gt;</text>
<text text-anchor="middle" x="779.59" y="-903.5" font-family="Times,serif" font-size="14.00">Pool</text>
<text text-anchor="middle" x="779.59" y="-886.7" font-family="Times,serif" font-size="14.00">contracts/Equb.sol</text>
<polyline fill="none" stroke="black" points="692.84,-878.5 866.34,-878.5 "/>
<text text-anchor="start" x="700.84" y="-861.9" font-family="Times,serif" font-size="14.00">equbAddress: address</text>
<text text-anchor="start" x="700.84" y="-845.1" font-family="Times,serif" font-size="14.00">name: string</text>
<text text-anchor="start" x="700.84" y="-828.3" font-family="Times,serif" font-size="14.00">profileUrl: string</text>
<text text-anchor="start" x="700.84" y="-811.5" font-family="Times,serif" font-size="14.00">email: string</text>
<text text-anchor="start" x="700.84" y="-794.7" font-family="Times,serif" font-size="14.00">description: string</text>
<text text-anchor="start" x="700.84" y="-777.9" font-family="Times,serif" font-size="14.00">contributionAmount: uint</text>
<text text-anchor="start" x="700.84" y="-761.1" font-family="Times,serif" font-size="14.00">contributionDate: uint</text>
<text text-anchor="start" x="700.84" y="-744.3" font-family="Times,serif" font-size="14.00">equbBalance: uint</text>
<text text-anchor="start" x="700.84" y="-727.5" font-family="Times,serif" font-size="14.00">contributionSkipCount: uint</text>
<text text-anchor="start" x="700.84" y="-710.7" font-family="Times,serif" font-size="14.00">website: string</text>
<text text-anchor="start" x="700.84" y="-693.9" font-family="Times,serif" font-size="14.00">twitterUrl: string</text>
<text text-anchor="start" x="700.84" y="-677.1" font-family="Times,serif" font-size="14.00">facebookUrl: string</text>
<text text-anchor="start" x="700.84" y="-660.3" font-family="Times,serif" font-size="14.00">telegramUrl: string</text>
<text text-anchor="start" x="700.84" y="-643.5" font-family="Times,serif" font-size="14.00">members: address[]</text>
</g>
<!-- 2&#45;&gt;0 -->
<g id="edge2" class="edge">
<title>2&#45;&gt;0</title>
<path fill="none" stroke="black" d="M817.01,-635.14C818.76,-626.98 820.52,-618.7 822.27,-610.35"/>
<polygon fill="black" stroke="black" points="822.29,-610.25 819.61,-603.56 824.75,-598.51 827.44,-605.2 822.29,-610.25"/>
</g>
<!-- 3 -->
<g id="node3" class="node">
<title>3</title>
<polygon fill="#f2f2f2" stroke="black" points="884.6,-736.1 884.6,-836.1 1012.58,-836.1 1012.58,-736.1 884.6,-736.1"/>
<text text-anchor="middle" x="948.59" y="-819.5" font-family="Times,serif" font-size="14.00">&lt;&lt;Struct&gt;&gt;</text>
<text text-anchor="middle" x="948.59" y="-802.7" font-family="Times,serif" font-size="14.00">ContributionRecord</text>
<text text-anchor="middle" x="948.59" y="-785.9" font-family="Times,serif" font-size="14.00">contracts/Equb.sol</text>
<polyline fill="none" stroke="black" points="884.6,-777.7 1012.58,-777.7 "/>
<text text-anchor="start" x="892.6" y="-761.1" font-family="Times,serif" font-size="14.00">contributed: bool</text>
<text text-anchor="start" x="892.6" y="-744.3" font-family="Times,serif" font-size="14.00">timestamp: uint</text>
</g>
<!-- 3&#45;&gt;0 -->
<g id="edge3" class="edge">
<title>3&#45;&gt;0</title>
<path fill="none" stroke="black" d="M942.94,-736.04C937.35,-703.42 928.57,-657.96 918.85,-610.32"/>
<polygon fill="black" stroke="black" points="918.84,-610.26 913.71,-605.19 916.42,-598.51 921.55,-603.58 918.84,-610.26"/>
</g>
<!-- 0&#45;&gt;1 -->
<g id="edge6" class="edge">
<title>0&#45;&gt;1</title>
<path fill="none" stroke="black" stroke-dasharray="5,2" d="M869.83,-154.27C869.67,-144.92 869.48,-135.92 869.24,-127.45"/>
<polygon fill="black" stroke="black" points="872.74,-127.27 868.94,-117.38 865.74,-127.48 872.74,-127.27"/>
</g>
<!-- 0&#45;&gt;2 -->
<g id="edge4" class="edge">
<title>0&#45;&gt;2</title>
<path fill="none" stroke="black" d="M811.3,-598.51C809.47,-607.48 807.67,-616.42 805.91,-625.24"/>
<polygon fill="black" stroke="black" points="802.46,-624.65 803.94,-635.14 809.32,-626.01 802.46,-624.65"/>
</g>
<!-- 0&#45;&gt;3 -->
<g id="edge5" class="edge">
<title>0&#45;&gt;3</title>
<path fill="none" stroke="black" stroke-dasharray="5,2" d="M902.97,-598.51C912.93,-645.71 923.11,-691.67 931.39,-726.17"/>
<polygon fill="black" stroke="black" points="928.02,-727.14 933.78,-736.04 934.83,-725.49 928.02,-727.14"/>
</g>
</g>
</svg>
